<svg width="21" height="19" viewBox="0 0 21 19" fill="none" xmlns="http://www.w3.org/2000/svg">
<path d="M18.5013 10.5721L11.0013 18.0001L3.50128 10.5721C3.00658 10.0907 2.61692 9.51207 2.35683 8.87269C2.09673 8.23331 1.97184 7.54701 1.99002 6.85699C2.00819 6.16697 2.16904 5.48819 2.46244 4.86339C2.75583 4.23859 3.17541 3.68131 3.69476 3.22663C4.21411 2.77196 4.82198 2.42974 5.48009 2.22154C6.1382 2.01333 6.83228 1.94364 7.51865 2.01686C8.20501 2.09007 8.86878 2.30461 9.46815 2.64696C10.0675 2.98931 10.5895 3.45205 11.0013 4.00605C11.4148 3.45608 11.9374 2.99738 12.5364 2.65866C13.1353 2.31994 13.7978 2.1085 14.4822 2.03757C15.1666 1.96665 15.8584 2.03775 16.5141 2.24645C17.1697 2.45514 17.7753 2.79693 18.2928 3.25042C18.8104 3.70391 19.2287 4.25934 19.5217 4.88195C19.8147 5.50456 19.976 6.18094 19.9956 6.86876C20.0152 7.55659 19.8925 8.24105 19.6354 8.8793C19.3783 9.51756 18.9922 10.0959 18.5013 10.5781" stroke="#273544" stroke-opacity="0.55" stroke-width="2" stroke-linecap="round" stroke-linejoin="round"/>
</svg>
